<?xml version="1.0" encoding="utf-8"?>
<!-- Generator: Adobe Illustrator 23.0.1, SVG Export Plug-In . SVG Version: 6.00 Build 0)  -->
<svg version="1.1" id="Layer_1" xmlns="http://www.w3.org/2000/svg" xmlns:xlink="http://www.w3.org/1999/xlink" x="0px" y="0px"
	 viewBox="0 0 141.73 141.73" style="enable-background:new 0 0 141.73 141.73;" xml:space="preserve">
<style type="text/css">
	.st0{fill:#FFFFFF;}
	.st1{fill:#B7B74A;stroke:#009245;stroke-width:0.1;stroke-miterlimit:10;}
	.st2{fill:#8E9248;}
	.st3{fill:#EAE553;}
</style>
<circle class="st0" cx="70.47" cy="70.47" r="70.47"/>
<g>
	<path class="st1" d="M104.08,26.94c0,0-18.04-0.16-19.42,0c-1.38,0.16-1.46,1.24-1.46,1.24l-0.15,61.21l-0.57,6.11
		c-0.56,3.26-3.47,7.42-7.83,9.03c-3.49,1.29-8.93,1.26-12.3-0.32c-4.14-1.95-7.99-6.47-7.01-15.53c0.36-3.36-2.53-3.05-1.83-3.02
		c0,0-17.76,0.02-18.62,0c-0.58-0.02-2.27,0.71-2.36,1.83c-1.22,15.65,5.07,23.43,5.07,23.43s3.1,5.21,9.65,8.6
		c6.55,3.4,12.54,5.99,22.65,5.5c10.11-0.49,18.12-3.64,20.63-5.58c3.56-2.53,7.68-5.47,10.43-9.96c0.84-1.37,1.54-2.86,2.12-4.27
		c1.38-3.38,2.04-7.01,2.04-10.65V28.07C105.21,26.94,104.08,26.94,104.08,26.94z"/>
	<path class="st2" d="M94.75,71.6c0,0,2.81,20.99-12.8,31.32c-5.77,3.82-12.9,5.23-20.5,4.8c-9.44-0.54-19.6-6.11-28.77-11.28v0
		c0.45,4.48,1.81,8.83,4,12.76l0.12,0.22c7.82,12.36,21.33,14.01,21.33,14.01s12.93-5.22,16.39-7.07
		c3.46-1.86,12.07-6.77,13.42-8.67C87.94,107.68,105.93,93.31,94.75,71.6z"/>
	<path class="st3" d="M94.09,26.86c0,0-13.01,19.91,0,43.66s-8.05,39.09-8.05,39.09s-22.2,17.42-47.77,2.23
		c0.98,1.2,3.16,3.93,6.91,6.47c2.5,1.7,5.96,3.23,9.24,4.48c5.37,2.06,11.33,2.55,14.46,2.27c6-0.52,12.33-1.08,18.4-3.84
		c4.17-1.9,7.73-4.88,11.05-8.29c0,0,4.77-4.81,6.42-13.74c0,0,0.38,1.21,0.38-7.02c0-8.23,0-64.13,0-64.13s-0.05-1.1-0.91-1.12
		C103.36,26.93,94.09,26.86,94.09,26.86z"/>
</g>
</svg>
